#!OML:ASF Y:\EmotionMaleHayes\Project 1\Capture day 1\Session 1\Male1.ASF
:FULLY-SPECIFIED
:DEGREES
2372
root -4.61321 16.6279 -17.3013 642.491 -81.5255 77.1773
lowerback 2.68943 -1.76043 -11.421
upperback 0.0673152 -2.71886 -0.0215394
thorax -0.916546 -1.31829 6.46688
lowerneck -24.8495 5.3379 5.87638
upperneck 18.9061 6.56172 -5.41601
head 10.5325 2.7552 -1.84099
rclavicle -5.13113e-015 -1.15295e-014
rhumerus -55.1613 -8.8729 -72.0989
rradius 30.2564
rwrist 4.18244
rhand -7.3629 -31.3334
rfingers 7.12502
rthumb 18.5218 -60.4716
lclavicle -5.13113e-015 -1.15295e-014
lhumerus -31.4292 -18.0485 96.3997
lradius 33.1714
lwrist -4.70732
lhand -13.0923 -22.6452
lfingers 7.12502
lthumb 13.0042 6.92948
rfemur -19.5508 -5.52198 9.58873
rtibia 14.9739
rfoot -2.72793 -4.40436
rtoes 24.6129
lfemur 27.1196 -1.81227 -33.3982
ltibia 10.3303
lfoot -14.6287 1.7867
ltoes -13.4319
2373
root -4.77928 16.6527 -17.3166 642.839 -82.1962 76.6452
lowerback 2.80447 -1.69849 -10.6643
upperback 0.0218043 -2.62041 0.242289
thorax -1.0681 -1.25973 6.32494
lowerneck -24.7543 5.26485 5.80264
upperneck 18.9252 6.52923 -5.56143
head 10.5241 2.71723 -1.88874
rclavicle 7.54139e-015 -1.59028e-015
rhumerus -54.9296 -8.69612 -72.0706
rradius 30.5192
rwrist 3.66512
rhand -7.32082 -32.017
rfingers 7.12502
rthumb 18.5622 -61.1514
lclavicle 7.54139e-015 -1.59028e-015
lhumerus -32.336 -17.7135 96.7966
lradius 32.4335
lwrist -4.42817
lhand -13.4151 -22.6732
lfingers 7.12502
lthumb 12.6931 6.92106
rfemur -18.7 -4.81961 10.4902
rtibia 14.9021
rfoot -2.97596 -4.30177
rtoes 25.624
lfemur 27.3522 -2.00126 -32.6814
ltibia 11.285
lfoot -13.7664 2.04479
ltoes -15.1397
2374
root -4.94502 16.6763 -17.3467 641.352 -83.0694 77.9056
lowerback 2.86954 -1.5342 -9.9537
upperback 0.0435027 -2.37559 0.543095
thorax -1.14237 -1.13581 6.23917
lowerneck -24.7138 5.21411 5.85526
upperneck 18.9622 6.46678 -5.65498
head 10.5323 2.68102 -1.9423
rclavicle -4.82053e-015 9.54166e-015
rhumerus -54.5661 -8.70218 -72.0342
rradius 30.674
rwrist 3.3906
rhand -7.06263 -33.0477
rfingers 7.12502
rthumb 18.8106 -62.1582
lclavicle -4.82053e-015 9.54166e-015
lhumerus -33.3249 -17.0633 96.9975
lradius 31.9648
lwrist -4.55616
lhand -13.5831 -22.6567
lfingers 7.12502
lthumb 12.5311 6.94755
rfemur -17.8789 -3.45949 11.6378
rtibia 14.7142
rfoot -3.30846 -4.63654
rtoes 26.6217
lfemur 27.6057 -2.11599 -31.6741
ltibia 12.1386
lfoot -12.9008 2.22833
ltoes -14.8919
2375
root -5.09642 16.7158 -17.3173 643.074 -81.9431 76.1928
lowerback 2.75863 -1.63906 -10.4119
upperback 0.0965717 -2.52436 0.189911
thorax -0.994843 -1.22008 6.1223
lowerneck -24.8953 5.25695 5.95729
upperneck 18.9874 6.48794 -5.68354
head 10.5798 2.69143 -1.96301
rclavicle 1.5294e-014 -1.59028e-015
rhumerus -53.75 -8.91353 -71.9626
rradius 30.5869
rwrist 3.42392
rhand -6.65768 -34.2246
rfingers 7.12502
rthumb 19.2 -63.2969
lclavicle 1.5294e-014 -1.59028e-015
lhumerus -33.9527 -16.394 97.0256
lradius 31.2718
lwrist -5.17802
lhand -13.5983 -22.8908
lfingers 7.12502
lthumb 12.5164 6.71434
rfemur -17.1808 -5.44114 10.3098
rtibia 14.8158
rfoot -2.98496 -2.9355
rtoes 26.9486
lfemur 27.3011 -2.20266 -33.1136
ltibia 13.4885
lfoot -11.878 2.06135
ltoes -14.0045
2376
root -5.26274 16.7335 -17.361 640.448 -82.995 78.5668
lowerback 2.85905 -1.46091 -9.74819
upperback 0.107393 -2.26597 0.572119
thorax -1.09592 -1.08674 6.14954
lowerneck -24.8092 5.35991 6.16832
upperneck 18.9306 6.6049 -5.87803
head 10.5671 2.73807 -2.04858
rclavicle 1.80894e-014 1.59028e-014
rhumerus -53.1612 -8.76095 -72.0052
rradius 30.6403
rwrist 3.1894
rhand -6.61962 -34.5003
rfingers 7.12502
rthumb 19.2366 -63.5689
lclavicle 1.80894e-014 1.59028e-014
lhumerus -34.8552 -15.7562 97.1055
lradius 30.5839
lwrist -5.52735
lhand -13.6961 -23.0362
lfingers 7.12502
lthumb 12.4221 6.57469
rfemur -16.1634 -3.47756 11.7065
rtibia 14.2601
rfoot -3.62204 -3.99343
rtoes 27.5967
lfemur 27.4135 -2.11798 -31.7212
ltibia 14.5429
lfoot -10.8859 2.29852
ltoes -13.6649
2377
root -5.42129 16.7631 -17.3754 640.748 -83.3372 78.0569
lowerback 3.00277 -1.4645 -9.28751
upperback 0.133129 -2.2666 0.674617
thorax -1.16283 -1.08633 6.00196
lowerneck -24.7481 5.48126 6.45683
upperneck 18.8438 6.73733 -6.15635
head 10.5559 2.78685 -2.17386
rclavicle 1.58096e-014 6.36111e-015
rhumerus -52.6379 -8.5159 -72.2151
rradius 30.9594
rwrist 2.89404
rhand -7.19513 -33.4542
rfingers 7.12502
rthumb 18.6831 -62.577
lclavicle 1.58096e-014 6.36111e-015
lhumerus -35.789 -15.2058 97.0844
lradius 30.2376
lwrist -5.68216
lhand -13.6669 -22.8567
lfingers 7.12502
lthumb 12.4503 6.75242
rfemur -15.1566 -3.69806 12.2402
rtibia 14.0637
rfoot -3.79752 -3.50712
rtoes 27.1806
lfemur 27.3074 -2.12756 -31.212
ltibia 15.9487
lfoot -9.63249 1.93119
ltoes -10.792
2378
root -5.58056 16.7926 -17.3918 641.066 -83.631 77.5008
lowerback 3.0992 -1.44303 -8.87935
upperback 0.20475 -2.22871 0.745549
thorax -1.16111 -1.07176 5.84691
lowerneck -24.9165 5.51065 6.3537
upperneck 19.0064 6.76833 -5.97185
head 10.6357 2.81171 -2.08331
rclavicle 1.05418e-014 -2.94201e-014
rhumerus -52.1175 -8.41634 -72.4148
rradius 31.4112
rwrist 2.76909
rhand -7.50749 -33.0563
rfingers 7.12502
rthumb 18.3827 -62.2077
lclavicle 1.05418e-014 -2.94201e-014
lhumerus -36.5815 -14.4699 96.9393
lradius 29.8309
lwrist -6.14092
lhand -13.4832 -22.8321
lfingers 7.12502
lthumb 12.6274 6.7662
rfemur -14.0785 -4.12124 12.6881
rtibia 13.8973
rfoot -4.03683 -2.76083
rtoes 27.0773
lfemur 27.1729 -1.90827 -30.5938
ltibia 17.4123
lfoot -8.23586 1.55389
ltoes -8.60709
2379
root -5.74298 16.8196 -17.4072 641.38 -83.7685 77.0551
lowerback 3.63616 -1.37798 -8.5159
upperback -0.201683 -2.19617 0.727529
thorax -1.90636 -1.0092 5.64942
lowerneck -24.8236 5.41088 6.04991
upperneck 19.4855 6.65241 -5.50829
head 10.7565 2.7914 -1.88885
rclavicle -2.01797e-014 -7.15625e-015
rhumerus -52.2823 -8.27787 -72.4568
rradius 31.8303
rwrist 2.59645
rhand -7.53526 -33.4147
rfingers 7.12502
rthumb 18.356 -62.5687
lclavicle -2.01797e-014 -7.15625e-015
lhumerus -38.0541 -13.5765 96.8723
lradius 29.3836
lwrist -6.7795
lhand -13.1518 -22.7969
lfingers 7.12502
lthumb 12.9468 6.78145
rfemur -13.1088 -4.7884 12.8961
rtibia 13.7158
rfoot -4.26583 -1.8713
rtoes 27.2806
lfemur 26.8537 -1.53299 -30.0436
ltibia 18.983
lfoot -6.74612 1.45003
ltoes -8.41418
2380
root -5.89992 16.8421 -17.4241 642.454 -83.9773 75.9675
lowerback 3.296 -1.34635 -8.18918
upperback -0.0278993 -2.10065 0.768867
thorax -1.5586 -0.985399 5.48934
lowerneck -25.111 5.34561 5.96862
upperneck 19.4766 6.56488 -5.4681
head 10.7943 2.74569 -1.87189
rclavicle 4.58564e-015 1.19271e-014
rhumerus -51.3999 -8.45625 -72.5992
rradius 31.8528
rwrist 2.44498
rhand -7.58574 -33.1862
rfingers 7.12502
rthumb 18.3074 -62.3447
lclavicle 4.58564e-015 1.19271e-014
lhumerus -38.6533 -13.3027 96.7199
lradius 29.0781
lwrist -7.09934
lhand -12.8218 -22.6554
lfingers 7.12502
lthumb 13.265 6.90249
rfemur -12.3388 -5.38675 13.1864
rtibia 13.5657
rfoot -4.56141 -1.18403
rtoes 26.8415
lfemur 26.3041 -1.25663 -29.3469
ltibia 20.679
lfoot -5.04803 1.40435
ltoes -6.07366
